# xmcd
#
# Track frame offsets: 
#        150
#        21303
#        39077
#        58430
#        75705
#        96297
#        115718
#        137989
#        159817
#        181453
#        202187
#
# Disc length: 2959 seconds
#
# Revision: 0
# Processed by: cddbd v1.5.2PL0 Copyright (c) Steve Scherf et al.
# Submitted via: ExactAudioCopy v1.0b1
#
DISCID=940b8d0b
DTITLE=Various Artist - Gigsounds
DYEAR=2004
DGENRE=OPM
TTITLE0=Serenity - You Are The One
TTITLE1=Spin Art with Mocha - I Don't Wanna See You Lonely
TTITLE2=Freeverse - Hanggang Ngayon
TTITLE3=Pure Instinct - Rason
TTITLE4=Wiseguys - Babalik Ka Pa Kaya?
TTITLE5=MP3 - Tell Me
TTITLE6=Heartbeat - Paano?
TTITLE7=Next Stage - Love Isn't There Anymore
TTITLE8=First Circle - Hibang
TTITLE9=Tribe Of Levi - Watcha Gonna Do
TTITLE10=Elements - How Do You Heal A Broken Heart
EXTD=
EXTT0=
EXTT1=
EXTT2=
EXTT3=
EXTT4=
EXTT5=
EXTT6=
EXTT7=
EXTT8=
EXTT9=
EXTT10=
PLAYORDER=
